<?xml version="1.0" standalone="no"?>
<svg xmlns:xlink="http://www.w3.org/1999/xlink" id="wave" style="transform:rotate(0deg); transition: 0.3s" viewBox="0 0 1440 370" version="1.1" xmlns="http://www.w3.org/2000/svg"><defs><linearGradient id="sw-gradient-0" x1="0" x2="0" y1="1" y2="0"><stop stop-color="rgba(255, 255, 255, 1)" offset="0%"/><stop stop-color="rgba(255, 255, 255, 1)" offset="100%"/></linearGradient></defs><path style="transform:translate(0, 0px); opacity:1" fill="url(#sw-gradient-0)" d="M0,148L120,172.7C240,197,480,247,720,240.5C960,234,1200,173,1440,141.8C1680,111,1920,111,2160,104.8C2400,99,2640,86,2880,80.2C3120,74,3360,74,3600,74C3840,74,4080,74,4320,92.5C4560,111,4800,148,5040,191.2C5280,234,5520,284,5760,277.5C6000,271,6240,210,6480,203.5C6720,197,6960,247,7200,246.7C7440,247,7680,197,7920,154.2C8160,111,8400,74,8640,67.8C8880,62,9120,86,9360,123.3C9600,160,9840,210,10080,240.5C10320,271,10560,284,10800,289.8C11040,296,11280,296,11520,302.2C11760,308,12000,321,12240,296C12480,271,12720,210,12960,191.2C13200,173,13440,197,13680,203.5C13920,210,14160,197,14400,185C14640,173,14880,160,15120,178.8C15360,197,15600,247,15840,259C16080,271,16320,247,16560,252.8C16800,259,17040,296,17160,314.5L17280,333L17280,370L17160,370C17040,370,16800,370,16560,370C16320,370,16080,370,15840,370C15600,370,15360,370,15120,370C14880,370,14640,370,14400,370C14160,370,13920,370,13680,370C13440,370,13200,370,12960,370C12720,370,12480,370,12240,370C12000,370,11760,370,11520,370C11280,370,11040,370,10800,370C10560,370,10320,370,10080,370C9840,370,9600,370,9360,370C9120,370,8880,370,8640,370C8400,370,8160,370,7920,370C7680,370,7440,370,7200,370C6960,370,6720,370,6480,370C6240,370,6000,370,5760,370C5520,370,5280,370,5040,370C4800,370,4560,370,4320,370C4080,370,3840,370,3600,370C3360,370,3120,370,2880,370C2640,370,2400,370,2160,370C1920,370,1680,370,1440,370C1200,370,960,370,720,370C480,370,240,370,120,370L0,370Z"/></svg>